<?xml version="1.0" encoding="utf-8"?><svg viewBox="0 0 485 485" xmlns="http://www.w3.org/2000/svg" xmlns:xlink="http://www.w3.org/1999/xlink"><style>:root>svg{display:none}:root>svg:target{display:block}</style><svg viewBox="0 0 485 485" id="facebook" xmlns="http://www.w3.org/2000/svg"><path d="M200.766 400h65.265V242.414h43.801s4.102-25.43 6.102-53.234h-49.649v-36.266c0-5.418 7.11-12.695 14.156-12.695h35.563V85h-48.367c-68.477 0-66.871 53.082-66.871 61.008v43.355h-31.77v53.032h31.77zm0 0"/><path d="M0 0v485h485V0zm455 455H30V30h425zm0 0"/></svg><svg viewBox="0 0 388 388" id="instagram" xmlns="http://www.w3.org/2000/svg"><path d="M0 0v388h388V0zm364 364H24V24h340zm0 0"/><path d="M256.426 68.035H131.578c-35.05 0-63.562 28.516-63.562 63.563v124.847c0 35.051 28.511 63.559 63.562 63.559h124.848c35.05 0 63.558-28.508 63.558-63.559V131.598c0-35.047-28.507-63.563-63.558-63.563zm36.14 188.41c0 19.93-16.214 36.145-36.14 36.145H131.578c-19.926 0-36.14-16.215-36.14-36.145V131.598c0-19.926 16.214-36.137 36.14-36.137h124.848c19.926 0 36.14 16.21 36.14 36.137zm0 0"/><path d="M260.98 142.547c-8.468 0-15.359-6.887-15.359-15.356 0-8.464 6.89-15.351 15.36-15.351s15.355 6.887 15.355 15.351c0 8.47-6.887 15.356-15.356 15.356zm0 0M193.996 129.129c-35.777 0-64.89 29.11-64.89 64.89s29.113 64.895 64.89 64.895c35.785 0 64.899-29.113 64.899-64.894 0-35.778-29.114-64.891-64.899-64.891zm0 102.371c-20.652 0-37.473-16.816-37.473-37.48 0-20.657 16.82-37.465 37.473-37.465 20.664 0 37.473 16.808 37.473 37.465 0 20.664-16.809 37.48-37.473 37.48zm0 0"/></svg><svg viewBox="0 0 32 32" id="ok" xmlns="http://www.w3.org/2000/svg"><path d="M5 5v22h22V5H5zm2 2h18v18H7V7zm9 2c-1.93 0-3.5 1.57-3.5 3.5S14.07 16 16 16s3.5-1.57 3.5-3.5S17.93 9 16 9zm0 2c.827 0 1.5.673 1.5 1.5S16.827 14 16 14s-1.5-.673-1.5-1.5.673-1.5 1.5-1.5zm-3.14 5.01a1 1 0 00-.46 1.79c.698.526 1.494.871 2.334 1.052l-2.441 2.441a.999.999 0 101.414 1.414L16 20.414l2.293 2.293a.997.997 0 001.414 0 .999.999 0 000-1.414l-2.441-2.441A5.94 5.94 0 0019.6 17.8c.44-.332.53-.96.199-1.4a.998.998 0 00-1.4-.2c-1.394 1.047-3.408 1.045-4.8 0a.994.994 0 00-.74-.191z"/></svg><svg viewBox="0 0 485 485" id="twitter" xmlns="http://www.w3.org/2000/svg"><path d="M85 341.457c28.598 18.34 62.566 29.04 99.066 29.04 118.871 0 183.871-98.474 183.871-183.88 0-2.797-.062-5.586-.183-8.36 12.629-9.109 23.582-20.491 32.246-33.452a129.185 129.185 0 01-37.117 10.18c13.344-8 23.59-20.665 28.414-35.755a129.4 129.4 0 01-41.035 15.68c-11.79-12.558-28.586-20.406-47.176-20.406-35.688 0-64.625 28.937-64.625 64.625 0 5.062.574 9.996 1.676 14.726-53.707-2.695-101.328-28.421-133.203-67.523-5.563 9.547-8.75 20.645-8.75 32.492 0 22.418 11.406 42.2 28.75 53.79a64.366 64.366 0 01-29.274-8.087c-.004.274-.004.543-.004.817 0 31.308 22.278 57.43 51.84 63.367a64.894 64.894 0 01-17.027 2.27c-4.164 0-8.211-.407-12.16-1.165 8.222 25.676 32.093 44.36 60.37 44.88-22.117 17.335-49.984 27.667-80.261 27.667-5.219 0-10.363-.304-15.418-.906zm0 0"/><path d="M0 0v485h485V0zm455 455H30V30h425zm0 0"/></svg><svg viewBox="0 0 485 485" id="vk" xmlns="http://www.w3.org/2000/svg"><path d="M144.754 275.965c12.16 16.476 26.133 31.047 44.184 41.355 20.44 11.684 42.449 15.207 65.66 14.133 10.843-.52 14.105-3.348 14.605-14.152.336-7.403 1.192-14.785 4.836-21.438 3.582-6.523 9.016-7.758 15.285-3.699 3.121 2.05 5.75 4.617 8.239 7.363 6.109 6.668 12.023 13.575 18.351 20.024 7.957 8.101 17.395 12.875 29.234 11.902l45.875.02c7.383-.5 11.223-9.551 6.985-17.817-2.985-5.77-6.903-10.902-11.043-15.883-9.375-11.261-20.422-20.859-30.867-31.046-9.414-9.192-10.012-14.528-2.45-25.133 8.278-11.586 17.153-22.711 25.493-34.235 7.78-10.765 15.765-21.515 19.84-34.39 2.609-8.219.3-11.84-8.094-13.293-1.453-.238-2.965-.238-4.438-.238l-49.918-.063c-6.148-.098-9.531 2.59-11.703 8.04-2.945 7.366-5.969 14.73-9.476 21.815-7.918 16.122-16.778 31.704-29.196 44.88-2.746 2.902-5.793 6.585-10.367 5.074-5.71-2.09-7.402-11.52-7.305-14.704l-.043-57.62c-1.109-8.215-2.945-11.9-11.12-13.497h-51.848c-6.903 0-10.387 2.692-14.09 7.008-2.11 2.512-2.77 4.121 1.613 4.957 8.594 1.629 13.473 7.203 14.746 15.824 2.051 13.793 1.91 27.641.719 41.473-.34 4.04-1.035 8.063-2.633 11.844-2.504 5.949-6.566 7.144-11.879 3.484-4.793-3.305-8.176-7.96-11.504-12.637-12.437-17.578-22.347-36.52-30.449-56.425-2.328-5.754-6.367-9.235-12.457-9.336-14.969-.239-29.953-.274-44.941.02-8.996.16-11.684 4.538-8 12.718 16.3 36.281 34.453 71.547 58.156 103.672zm0 0"/><path d="M0 0v485h485V0zm455 455H30V30h425zm0 0"/></svg></svg>